<mxfile host="app.diagrams.net" agent="Mozilla/5.0 (Macintosh; Intel Mac OS X 10_15_7) AppleWebKit/537.36 (KHTML, like Gecko) Chrome/127.0.0.0 Safari/537.36" version="24.7.7">
  <diagram name="Page-1" id="TxRMRZZFwcSCUCRzbKeD">
    <mxGraphModel dx="714" dy="495" grid="1" gridSize="10" guides="1" tooltips="1" connect="1" arrows="1" fold="1" page="1" pageScale="1" pageWidth="827" pageHeight="1169" math="0" shadow="0">
      <root>
        <mxCell id="0" />
        <mxCell id="1" parent="0" />
        <mxCell id="WhcIM8ixN1sqGhZZjGMI-3" value="" style="edgeStyle=orthogonalEdgeStyle;rounded=0;orthogonalLoop=1;jettySize=auto;html=1;" edge="1" parent="1" source="WhcIM8ixN1sqGhZZjGMI-1" target="WhcIM8ixN1sqGhZZjGMI-2">
          <mxGeometry relative="1" as="geometry" />
        </mxCell>
        <mxCell id="WhcIM8ixN1sqGhZZjGMI-1" value="Matherial App" style="rounded=1;whiteSpace=wrap;html=1;" vertex="1" parent="1">
          <mxGeometry x="440" y="140" width="120" height="60" as="geometry" />
        </mxCell>
        <mxCell id="WhcIM8ixN1sqGhZZjGMI-5" value="" style="edgeStyle=orthogonalEdgeStyle;rounded=0;orthogonalLoop=1;jettySize=auto;html=1;" edge="1" parent="1" source="WhcIM8ixN1sqGhZZjGMI-2" target="WhcIM8ixN1sqGhZZjGMI-4">
          <mxGeometry relative="1" as="geometry" />
        </mxCell>
        <mxCell id="WhcIM8ixN1sqGhZZjGMI-7" value="" style="edgeStyle=orthogonalEdgeStyle;rounded=0;orthogonalLoop=1;jettySize=auto;html=1;" edge="1" parent="1" source="WhcIM8ixN1sqGhZZjGMI-2" target="WhcIM8ixN1sqGhZZjGMI-6">
          <mxGeometry relative="1" as="geometry" />
        </mxCell>
        <mxCell id="WhcIM8ixN1sqGhZZjGMI-9" value="" style="edgeStyle=orthogonalEdgeStyle;rounded=0;orthogonalLoop=1;jettySize=auto;html=1;" edge="1" parent="1" source="WhcIM8ixN1sqGhZZjGMI-2" target="WhcIM8ixN1sqGhZZjGMI-8">
          <mxGeometry relative="1" as="geometry" />
        </mxCell>
        <mxCell id="WhcIM8ixN1sqGhZZjGMI-2" value="Scaffold" style="rounded=1;whiteSpace=wrap;html=1;" vertex="1" parent="1">
          <mxGeometry x="440" y="270" width="120" height="60" as="geometry" />
        </mxCell>
        <mxCell id="WhcIM8ixN1sqGhZZjGMI-4" value="Color" style="whiteSpace=wrap;html=1;rounded=1;" vertex="1" parent="1">
          <mxGeometry x="110" y="410" width="120" height="60" as="geometry" />
        </mxCell>
        <mxCell id="WhcIM8ixN1sqGhZZjGMI-15" value="" style="edgeStyle=orthogonalEdgeStyle;rounded=0;orthogonalLoop=1;jettySize=auto;html=1;" edge="1" parent="1" source="WhcIM8ixN1sqGhZZjGMI-6" target="WhcIM8ixN1sqGhZZjGMI-14">
          <mxGeometry relative="1" as="geometry" />
        </mxCell>
        <mxCell id="WhcIM8ixN1sqGhZZjGMI-19" value="" style="edgeStyle=orthogonalEdgeStyle;rounded=0;orthogonalLoop=1;jettySize=auto;html=1;" edge="1" parent="1" source="WhcIM8ixN1sqGhZZjGMI-6" target="WhcIM8ixN1sqGhZZjGMI-18">
          <mxGeometry relative="1" as="geometry" />
        </mxCell>
        <mxCell id="WhcIM8ixN1sqGhZZjGMI-6" value="AppBar" style="whiteSpace=wrap;html=1;rounded=1;" vertex="1" parent="1">
          <mxGeometry x="440" y="410" width="120" height="60" as="geometry" />
        </mxCell>
        <mxCell id="WhcIM8ixN1sqGhZZjGMI-11" value="" style="edgeStyle=orthogonalEdgeStyle;rounded=0;orthogonalLoop=1;jettySize=auto;html=1;" edge="1" parent="1" source="WhcIM8ixN1sqGhZZjGMI-8" target="WhcIM8ixN1sqGhZZjGMI-10">
          <mxGeometry relative="1" as="geometry" />
        </mxCell>
        <mxCell id="WhcIM8ixN1sqGhZZjGMI-8" value="Center" style="whiteSpace=wrap;html=1;rounded=1;" vertex="1" parent="1">
          <mxGeometry x="650" y="410" width="120" height="60" as="geometry" />
        </mxCell>
        <mxCell id="WhcIM8ixN1sqGhZZjGMI-13" value="" style="edgeStyle=orthogonalEdgeStyle;rounded=0;orthogonalLoop=1;jettySize=auto;html=1;" edge="1" parent="1" source="WhcIM8ixN1sqGhZZjGMI-10" target="WhcIM8ixN1sqGhZZjGMI-12">
          <mxGeometry relative="1" as="geometry" />
        </mxCell>
        <mxCell id="WhcIM8ixN1sqGhZZjGMI-10" value="Image" style="whiteSpace=wrap;html=1;rounded=1;" vertex="1" parent="1">
          <mxGeometry x="650" y="550" width="120" height="60" as="geometry" />
        </mxCell>
        <mxCell id="WhcIM8ixN1sqGhZZjGMI-12" value="NetworkImage" style="whiteSpace=wrap;html=1;rounded=1;" vertex="1" parent="1">
          <mxGeometry x="650" y="690" width="120" height="60" as="geometry" />
        </mxCell>
        <mxCell id="WhcIM8ixN1sqGhZZjGMI-14" value="Text" style="whiteSpace=wrap;html=1;rounded=1;" vertex="1" parent="1">
          <mxGeometry x="440" y="550" width="120" height="60" as="geometry" />
        </mxCell>
        <mxCell id="WhcIM8ixN1sqGhZZjGMI-18" value="Color" style="whiteSpace=wrap;html=1;rounded=1;" vertex="1" parent="1">
          <mxGeometry x="250" y="550" width="120" height="60" as="geometry" />
        </mxCell>
      </root>
    </mxGraphModel>
  </diagram>
</mxfile>
